<svg class="svg-icon" style="width: 1em; height: 1em;vertical-align: middle;fill: currentColor;overflow: hidden;" viewBox="0 0 1024 1024" version="1.1" xmlns="http://www.w3.org/2000/svg"><path d="M868.723006 64.815191l-715.495694 0c-49.194422 0-89.436962 40.24254-89.436962 89.436962l0 804.932656 178.873923-178.873923 626.058732 0c49.194422 0 89.436962-40.24254 89.436962-89.436962l0-536.62177C958.160991 105.057731 917.918451 64.815191 868.723006 64.815191zM779.286044 601.436962 242.665297 601.436962l0-89.435938 536.620747 0L779.286044 601.436962zM779.286044 467.281519 242.665297 467.281519l0-89.436962 536.620747 0L779.286044 467.281519zM779.286044 333.126077 242.665297 333.126077l0-89.436962 536.620747 0L779.286044 333.126077z"  /></svg>