<svg class="svg-icon" style="width: 1em; height: 1em;vertical-align: middle;fill: currentColor;overflow: hidden;" viewBox="0 0 1024 1024" version="1.1" xmlns="http://www.w3.org/2000/svg"><path d="M853.333333 170.666667l-682.666667 0c-46.933333 0-84.906667 38.4-84.906667 85.333333l-0.426667 512c0 46.933333 38.4 85.333333 85.333333 85.333333l682.666667 0c46.933333 0 85.333333-38.4 85.333333-85.333333l0-512c0-46.933333-38.4-85.333333-85.333333-85.333333zM640 768l-469.333333 0 0-170.666667 469.333333 0 0 170.666667zM640 554.666667l-469.333333 0 0-170.666667 469.333333 0 0 170.666667zM853.333333 768l-170.666667 0 0-384 170.666667 0 0 384z"  /></svg>